<?xml version="1.0" encoding="utf-8"?>
<svg viewBox="0 0 22.5 22.5" width="50px" height="50px" fill="currentColor" xmlns="http://www.w3.org/2000/svg" xmlns:xlink="http://www.w3.org/1999/xlink" xmlns:bx="https://boxy-svg.com">
  <defs>
    <linearGradient id="gradient-2-0" gradientUnits="userSpaceOnUse" x1="8" y1="-3.444" x2="8" y2="19.444" gradientTransform="matrix(0.647884, -0.739343, 0.736724, 0.645589, 0.371181, 11.702967)" xlink:href="#gradient-2"/>
    <linearGradient id="gradient-2" bx:pinned="true">
      <title>Mex</title>
      <stop offset="0" style="stop-color: rgb(63, 112, 94);"/>
      <stop offset="0.25" style="stop-color: rgb(100, 144, 127);"/>
      <stop offset="0.5" style="stop-color: rgb(102, 138, 158);"/>
      <stop offset="0.75" style="stop-color: rgb(121, 72, 113);"/>
      <stop offset="1" style="stop-color: rgb(119, 52, 87);"/>
    </linearGradient>
  </defs>
  <ellipse style="fill-rule: nonzero; fill: url('#gradient-2-0'); paint-order: fill;" cx="11.25" cy="11.25" rx="11.25" ry="11.25" transform="matrix(1, 0, 0, 1, 3.552713678800501e-15, 0)"/>
  <path d="M 0.782 9.733 C 0.782 9.049 1.337 8.494 2.022 8.494 L 12.764 8.494 C 13.448 8.494 14.004 9.049 14.004 9.733 L 14.004 10.973 C 14.004 11.201 13.819 11.386 13.59 11.386 C 12.636 11.386 12.04 12.419 12.517 13.245 C 12.739 13.629 13.148 13.865 13.59 13.865 C 13.819 13.865 14.004 14.05 14.004 14.278 L 14.004 15.518 C 14.004 16.202 13.448 16.757 12.764 16.757 L 2.022 16.757 C 1.337 16.757 0.782 16.202 0.782 15.518 L 0.782 14.278 C 0.782 14.05 0.967 13.865 1.195 13.865 C 2.15 13.865 2.746 12.832 2.269 12.006 C 2.047 11.622 1.638 11.386 1.195 11.386 C 0.967 11.386 0.782 11.201 0.782 10.973 L 0.782 9.733 Z M 4.088 10.56 C 4.088 10.788 4.273 10.973 4.501 10.973 L 10.285 10.973 C 10.603 10.973 10.802 10.628 10.643 10.353 C 10.569 10.225 10.433 10.146 10.285 10.146 L 4.501 10.146 C 4.273 10.146 4.088 10.332 4.088 10.56 Z M 4.088 14.691 C 4.088 14.919 4.273 15.105 4.501 15.105 L 10.285 15.105 C 10.603 15.105 10.802 14.76 10.643 14.485 C 10.569 14.357 10.433 14.278 10.285 14.278 L 4.501 14.278 C 4.273 14.278 4.088 14.463 4.088 14.691 Z M 4.088 12.625 C 4.088 13.082 4.458 13.452 4.914 13.452 L 9.872 13.452 C 10.508 13.452 10.906 12.763 10.588 12.212 C 10.44 11.957 10.167 11.799 9.872 11.799 L 4.914 11.799 C 4.458 11.799 4.088 12.169 4.088 12.625 Z" style="fill: rgb(68, 206, 27); paint-order: stroke; stroke-width: 0.2px; transform-origin: 7.393px 12.625px;" transform="matrix(-0.342020004988, -0.9396930933, 0.9396930933, -0.342020004988, 0.000001183016, 0.00000224878)"/>
  <path d="M 8.496 15.517 C 8.496 16.201 9.051 16.756 9.736 16.756 L 20.478 16.756 C 21.162 16.756 21.718 16.201 21.718 15.517 L 21.718 14.277 C 21.718 14.049 21.533 13.864 21.304 13.864 C 20.35 13.864 19.754 12.831 20.231 12.005 C 20.453 11.621 20.862 11.385 21.304 11.385 C 21.533 11.385 21.718 11.2 21.718 10.972 L 21.718 9.732 C 21.718 9.048 21.162 8.493 20.478 8.493 L 9.736 8.493 C 9.051 8.493 8.496 9.048 8.496 9.732 L 8.496 10.972 C 8.496 11.2 8.681 11.385 8.909 11.385 C 9.864 11.385 10.46 12.418 9.983 13.244 C 9.761 13.628 9.352 13.864 8.909 13.864 C 8.681 13.864 8.496 14.049 8.496 14.277 L 8.496 15.517 Z M 11.802 14.69 C 11.802 14.462 11.987 14.277 12.215 14.277 L 17.999 14.277 C 18.317 14.277 18.516 14.622 18.357 14.897 C 18.283 15.025 18.147 15.104 17.999 15.104 L 12.215 15.104 C 11.987 15.104 11.802 14.918 11.802 14.69 Z M 11.802 10.559 C 11.802 10.331 11.987 10.145 12.215 10.145 L 17.999 10.145 C 18.317 10.145 18.516 10.49 18.357 10.765 C 18.283 10.893 18.147 10.972 17.999 10.972 L 12.215 10.972 C 11.987 10.972 11.802 10.787 11.802 10.559 Z M 11.802 12.625 C 11.802 12.168 12.172 11.798 12.628 11.798 L 17.586 11.798 C 18.222 11.798 18.62 12.487 18.302 13.038 C 18.154 13.293 17.881 13.451 17.586 13.451 L 12.628 13.451 C 12.172 13.451 11.802 13.081 11.802 12.625 Z" style="fill: rgb(229, 31, 31); paint-order: stroke; stroke-width: 0.2px; transform-origin: 15.107px 12.625px;" transform="matrix(0.342020004988, -0.9396930933, 0.9396930933, 0.342020004988, 4.86679e-7, 0.000001035774)"/>
  <path d="M 3.25 7.75 C 3.25 6.922 3.922 6.25 4.75 6.25 L 17.75 6.25 C 18.578 6.25 19.25 6.922 19.25 7.75 L 19.25 9.25 C 19.25 9.526 19.026 9.75 18.75 9.75 C 17.595 9.75 16.874 11 17.451 12 C 17.719 12.464 18.214 12.75 18.75 12.75 C 19.026 12.75 19.25 12.974 19.25 13.25 L 19.25 14.75 C 19.25 15.578 18.578 16.25 17.75 16.25 L 4.75 16.25 C 3.922 16.25 3.25 15.578 3.25 14.75 L 3.25 13.25 C 3.25 12.974 3.474 12.75 3.75 12.75 C 4.905 12.75 5.626 11.5 5.049 10.5 C 4.781 10.036 4.286 9.75 3.75 9.75 C 3.474 9.75 3.25 9.526 3.25 9.25 L 3.25 7.75 Z M 7.25 8.75 C 7.25 9.026 7.474 9.25 7.75 9.25 L 14.75 9.25 C 15.135 9.25 15.375 8.833 15.183 8.5 C 15.094 8.345 14.929 8.25 14.75 8.25 L 7.75 8.25 C 7.474 8.25 7.25 8.474 7.25 8.75 Z M 7.25 13.75 C 7.25 14.026 7.474 14.25 7.75 14.25 L 14.75 14.25 C 15.135 14.25 15.375 13.833 15.183 13.5 C 15.094 13.345 14.929 13.25 14.75 13.25 L 7.75 13.25 C 7.474 13.25 7.25 13.474 7.25 13.75 Z M 7.25 11.25 C 7.25 11.802 7.698 12.25 8.25 12.25 L 14.25 12.25 C 15.02 12.25 15.501 11.417 15.116 10.75 C 14.937 10.441 14.607 10.25 14.25 10.25 L 8.25 10.25 C 7.698 10.25 7.25 10.698 7.25 11.25 Z" style="fill: rgb(255, 255, 255); paint-order: stroke; stroke-width: 0.2px; transform-origin: 11.25px 11.25px;" transform="matrix(0, 1, -1, 0, -6.18398e-7, 4.6326e-8)"/>
</svg>